<mxfile host="" modified="2020-06-02T15:53:20.846Z" agent="5.0 (Windows NT 10.0; Win64; x64) AppleWebKit/537.36 (KHTML, like Gecko) Code/1.45.1 Chrome/78.0.3904.130 Electron/7.2.4 Safari/537.36" etag="Kf2OhCu7L5i8-Ri6yupU" version="13.1.3">
    <diagram id="6hGFLwfOUW9BJ-s0fimq" name="Page-1">
        <mxGraphModel dx="780" dy="480" grid="1" gridSize="10" guides="1" tooltips="1" connect="1" arrows="1" fold="1" page="1" pageScale="1" pageWidth="827" pageHeight="1169" math="0" shadow="0">
            <root>
                <mxCell id="0"/>
                <mxCell id="1" parent="0"/>
                <mxCell id="3" value="" style="whiteSpace=wrap;html=1;fillColor=#f5f5f5;strokeColor=#666666;fontColor=#333333;" vertex="1" parent="1">
                    <mxGeometry x="30" y="40" width="790" height="480" as="geometry"/>
                </mxCell>
                <mxCell id="4" value="Text" style="text;html=1;align=center;verticalAlign=middle;resizable=0;points=[];autosize=1;" vertex="1" parent="1">
                    <mxGeometry x="474" y="52" width="40" height="20" as="geometry"/>
                </mxCell>
            </root>
        </mxGraphModel>
    </diagram>
</mxfile>